<?xml version="1.0" encoding="UTF-8"?>
<svg id="Layer_1" data-name="Layer 1" xmlns="http://www.w3.org/2000/svg" viewBox="0 0 1821.32 503.11">
  <defs>
    <style>
      .cls-1 {
        fill: #0b3140;
      }

      .cls-2 {
        fill: #f05722;
      }
    </style>
  </defs>
  <g>
    <path class="cls-1" d="M682.26,364.87v-223.49h40.5l55.04,140.99c1.3,3.3,2.78,7.43,4.42,12.37,1.65,4.95,3.4,10.33,5.25,16.12,1.85,5.8,3.62,11.58,5.32,17.33s3.2,11.07,4.5,15.97h-6.3c1.4-4.6,2.95-9.72,4.65-15.38,1.7-5.65,3.47-11.4,5.32-17.25,1.85-5.85,3.62-11.33,5.32-16.42,1.7-5.1,3.2-9.35,4.5-12.75l54.3-140.99h40.65v223.49h-28.05v-127.65c0-4.6.02-9.85.07-15.75.05-5.9.15-12.1.3-18.6.15-6.5.3-13.1.45-19.8.15-6.7.27-13.2.37-19.5h2.4c-2.1,6.9-4.33,13.93-6.67,21.08-2.35,7.15-4.65,14.05-6.9,20.7-2.25,6.65-4.38,12.73-6.37,18.22-2,5.5-3.7,10.05-5.1,13.65l-49.95,127.65h-24.75l-50.7-127.65c-1.4-3.5-3.05-7.92-4.95-13.27s-3.97-11.3-6.22-17.85c-2.25-6.55-4.57-13.45-6.98-20.7-2.4-7.25-4.85-14.52-7.35-21.82h2.7c.2,5.6.37,11.65.52,18.15.15,6.5.27,13.08.38,19.73.09,6.65.2,13.05.3,19.2s.15,11.68.15,16.58v127.65h-27.15Z"/>
    <path class="cls-1" d="M939.89,425.61l6.9-23.4,2.85.75c5.5,1.4,10.5,1.77,15,1.13,4.5-.65,8.55-2.88,12.15-6.68,3.6-3.8,6.75-9.7,9.45-17.7l4.8-13.95-64.05-168.6h29.55l35.7,99.45c3.8,10.4,7,20.7,9.6,30.9,2.6,10.2,5.35,20.1,8.25,29.7h-9.9c2.9-9.6,5.68-19.52,8.33-29.77,2.65-10.25,5.82-20.52,9.52-30.82l36-99.45h29.4l-73.65,192.74c-3.4,8.9-7.48,16.23-12.23,21.98-4.75,5.75-10.27,10-16.57,12.75-6.3,2.75-13.4,4.12-21.3,4.12-4.8,0-8.95-.35-12.45-1.05-3.5-.7-5.95-1.4-7.35-2.1Z"/>
    <path class="cls-1" d="M1193.62,367.87c-19.1,0-36.12-4.63-51.07-13.88-14.95-9.24-26.7-22.45-35.25-39.6-8.55-17.15-12.82-37.52-12.82-61.12s4.28-44.12,12.82-61.27c8.55-17.15,20.3-30.37,35.25-39.67,14.95-9.3,31.97-13.95,51.07-13.95,11.3,0,21.98,1.65,32.02,4.95,10.05,3.3,19.07,8.13,27.08,14.48,8,6.35,14.67,14.05,20.02,23.1,5.35,9.05,9.02,19.33,11.02,30.82h-28.5c-1.6-7.7-4.33-14.45-8.18-20.25-3.85-5.8-8.55-10.7-14.1-14.7-5.55-4-11.68-7-18.38-9-6.7-2-13.7-3-21-3-13.4,0-25.5,3.4-36.3,10.2-10.8,6.8-19.35,16.77-25.65,29.93-6.3,13.15-9.45,29.27-9.45,48.37s3.17,35.08,9.53,48.22c6.35,13.15,14.93,23.1,25.72,29.85,10.8,6.75,22.85,10.12,36.15,10.12,7.3,0,14.3-1.02,21-3.08s12.83-5.05,18.38-9c5.55-3.95,10.25-8.85,14.1-14.7,3.85-5.85,6.58-12.57,8.18-20.18h28.5c-1.9,11.4-5.53,21.6-10.88,30.6-5.35,9-12.02,16.7-20.02,23.1-8,6.4-17.02,11.28-27.07,14.62-10.05,3.35-20.77,5.03-32.17,5.03Z"/>
    <path class="cls-1" d="M1355.85,368.77c-10.6,0-20.23-2-28.87-6-8.65-4-15.53-9.85-20.63-17.55-5.1-7.7-7.65-17.05-7.65-28.05,0-9.6,1.9-17.4,5.7-23.4,3.8-6,8.87-10.73,15.23-14.17,6.35-3.45,13.37-6.03,21.08-7.73,7.7-1.7,15.45-3.05,23.25-4.05,10-1.3,18.15-2.3,24.45-3,6.3-.7,10.97-1.9,14.02-3.6,3.05-1.7,4.58-4.6,4.58-8.7v-.9c0-7-1.3-12.92-3.9-17.77s-6.5-8.57-11.7-11.17c-5.2-2.6-11.7-3.9-19.5-3.9s-14.85,1.25-20.55,3.75c-5.7,2.5-10.33,5.63-13.88,9.38-3.55,3.75-6.22,7.57-8.02,11.47l-25.95-8.55c4.3-10.2,10.1-18.17,17.4-23.92,7.3-5.75,15.35-9.82,24.15-12.23,8.8-2.4,17.5-3.6,26.1-3.6,5.6,0,11.97.68,19.12,2.03,7.15,1.35,14.05,4.02,20.7,8.02,6.65,4,12.15,9.93,16.5,17.77,4.35,7.85,6.53,18.33,6.53,31.42v110.55h-26.55v-22.8h-1.8c-1.9,3.9-4.95,7.92-9.15,12.07-4.2,4.15-9.65,7.63-16.35,10.43s-14.8,4.2-24.3,4.2ZM1360.5,344.92c10,0,18.45-1.95,25.35-5.85,6.9-3.9,12.15-8.97,15.75-15.22,3.6-6.25,5.4-12.77,5.4-19.57v-23.25c-1.1,1.3-3.5,2.48-7.2,3.52-3.7,1.05-7.92,1.98-12.67,2.77-4.75.8-9.35,1.48-13.8,2.03-4.45.55-7.98.97-10.57,1.28-6.5.8-12.58,2.18-18.23,4.12s-10.17,4.8-13.57,8.55c-3.4,3.75-5.1,8.83-5.1,15.23,0,5.8,1.5,10.65,4.5,14.55,3,3.9,7.1,6.85,12.3,8.85,5.2,2,11.15,3,17.85,3Z"/>
    <path class="cls-1" d="M1523.04,368.46c-11.5,0-21.73-1.68-30.68-5.02-8.95-3.35-16.32-8.33-22.12-14.93-5.8-6.6-9.7-14.7-11.7-24.3l25.65-6.15c2.4,9.2,6.92,15.95,13.57,20.25,6.65,4.3,14.97,6.45,24.98,6.45,11.7,0,21.02-2.5,27.97-7.5,6.95-5,10.43-10.95,10.43-17.85,0-5.8-2.03-10.62-6.08-14.48-4.05-3.85-10.22-6.72-18.52-8.62l-27.9-6.6c-15.2-3.6-26.5-9.18-33.9-16.73-7.4-7.55-11.1-17.22-11.1-29.03,0-9.6,2.7-18.07,8.1-25.43,5.4-7.35,12.77-13.1,22.12-17.25,9.35-4.15,19.97-6.22,31.87-6.22s21.27,1.73,29.32,5.18c8.05,3.45,14.6,8.2,19.65,14.25,5.05,6.05,8.82,13.03,11.32,20.93l-24.45,6.3c-2.3-6-6.13-11.45-11.47-16.35-5.35-4.9-13.42-7.35-24.22-7.35-10,0-18.32,2.3-24.97,6.9-6.65,4.6-9.98,10.4-9.98,17.4,0,6.2,2.25,11.18,6.75,14.93,4.5,3.75,11.65,6.78,21.45,9.08l25.35,6c15.2,3.6,26.45,9.18,33.75,16.73,7.3,7.55,10.95,17.08,10.95,28.58,0,9.8-2.77,18.52-8.32,26.17-5.55,7.65-13.3,13.67-23.25,18.07-9.95,4.4-21.48,6.6-34.57,6.6Z"/>
    <path class="cls-1" d="M1683.32,368.46c-16.2,0-30.17-3.6-41.92-10.8-11.75-7.2-20.8-17.25-27.15-30.15-6.35-12.9-9.53-27.95-9.53-45.15s3.1-32.35,9.3-45.45c6.2-13.1,14.97-23.34,26.33-30.75,11.35-7.4,24.62-11.1,39.82-11.1,8.9,0,17.67,1.48,26.33,4.42,8.65,2.95,16.5,7.7,23.55,14.25s12.68,15.17,16.87,25.87c4.2,10.7,6.3,23.8,6.3,39.3v11.25h-130.2v-22.8h115.65l-12.6,8.4c0-11-1.73-20.77-5.18-29.32-3.45-8.55-8.57-15.25-15.37-20.1-6.8-4.85-15.25-7.27-25.35-7.27s-18.75,2.47-25.95,7.42c-7.2,4.95-12.7,11.4-16.5,19.35-3.8,7.95-5.7,16.48-5.7,25.57v15.15c0,12.4,2.15,22.93,6.45,31.58,4.3,8.65,10.32,15.2,18.07,19.65,7.75,4.45,16.73,6.68,26.92,6.68,6.6,0,12.6-.95,18-2.85,5.4-1.9,10.05-4.78,13.95-8.62,3.9-3.85,6.9-8.63,9-14.33l26.1,7.2c-2.6,8.4-7,15.81-13.2,22.2-6.2,6.4-13.88,11.4-23.03,15-9.15,3.6-19.47,5.4-30.97,5.4Z"/>
  </g>
  <g>
    <g>
      <path class="cls-2" d="M233.56,149.54c.02-1.63-.21-40.18-32.37-62.23-18.1-12.41-36.99-12.88-42.81-12.95-4.15-.06-9.84.03-16.91,2.16-18.57,5.58-28.24,20.02-30.58,23.74-8.65,13.78-8.68,27.17-8.63,30.22.2,12.09,4.41,23.9,9.71,30.22.46.54,1.66,1.92,4.2,4.92,3.95,4.65,7.1,8.46,9.11,10.91-12.71,14.87-25.42,29.74-38.13,44.61-4.92,6.45-19.1,26.78-19.06,56.12,0,6.02.64,38.27,25.9,63.67,22.07,22.18,56.45,32.63,83.58,23.74,6.37-2.09,11.02-4.8,13.43-6.23,5.09-3.02,31.49-18.66,35.49-48.44,2.58-19.22-5.46-34.66-8.15-39.33-4.43-7.67-10.65-14.33-19.67-23.98-5.36-5.74-10.04-10.26-13.31-13.31,10.31-12.35,20.62-24.7,30.94-37.05,4.58-5.65,17-22.5,17.26-46.76ZM188.25,250.42c6.62,7.22,10.65,16.85,10.65,27.41,0,22.43-18.18,40.61-40.61,40.61s-40.61-18.18-40.61-40.61c0-10.55,4.03-20.17,10.63-27.39l29.65-35.77,30.28,35.74ZM184.24,170.88h.05l-25.69,30.98-26.27-30.98h.03c-4.68-5.75-7.49-13.09-7.49-21.08,0-18.46,14.97-33.43,33.43-33.43s33.43,14.97,33.43,33.43c0,7.99-2.8,15.33-7.48,21.08Z"/>
      <path class="cls-2" d="M378.16,264.69c-.43-14.29-3.07-22.97-3.07-22.97-2-5.42-5.01-11.52-9.55-17.58-6.72-8.97-13.9-13.98-17.35-16.34-6.12-4.19-11.14-6.3-12.64-6.91-.98-.4-4.26-1.7-8.6-2.8-16.26-4.1-30.82-1.09-33.18-.57-3.64.79-9.35,2.06-15.96,5.5-5.44,2.83-10.06,6.38-13.01,8.65-1.85,1.42-3.35,2.66-4.38,3.54-1.35,1.22-2.78,2.62-4.21,4.21-2.12,2.35-3.84,4.65-5.22,6.74,3.97,4.19,8.01,8.4,12.13,12.64,4.57,4.7,8.28,8.29,12.8,12.8,2.02-2.7,4.02-5.3,7.24-8.76.68-.73,3.39-3.57,7.75-6.23,1.58-.96,4.66-2.81,9.1-4.04,3.07-.85,8.94-2,16-.51,4.38.93,7.57,2.53,9.1,3.37,6.76,3.73,10.25,8.79,11.12,10.11,1.14,1.72,2.75,4.22,3.6,7.94.81,3.52.57,6.52.27,8.38-8.15-.3-16.84-.51-25.16-.82-5.85-.21-11.72-.06-17.54.48-12.71,1.19-19.68,3.71-22.49,4.81-2.45.95-10.21,4.15-18,10.64-14.32,11.95-17.73,25.92-18.5,29.52-1.9,8.94-.77,16.6.65,21.86.11.41.22.81.33,1.19,1.75,5.92,4.3,10.51,6.14,13.38,3.72,5.78,7.98,10.03,11.3,12.88,1.63,1.41,4.2,3.44,7.73,5.4,18.81,10.46,38.74,5.84,38.74,5.84,3.14-.73,13.74-3.52,23.73-12.62,6.28-5.72,9.94-11.76,11.96-15.75,0,.01-.01.04-.01.04,0,0,.1,1.3.01,2.49-.14,8.42-.13,15.29-.07,23.74h39.22c-.01-2.55.01-99.84,0-100.26ZM326.42,336.68c-12.88,8.16-30.12,3.83-37.49-9.83-6.09-11.29-3.08-25.56,7.07-33.41,3.8-2.94,7.6-4.73,11.96-5.36,0,0,.07,0,.16-.02.53-.07,1.07-.11,1.61-.11l29.55-.11-.23,24.47c.71,9.44-4.08,18.95-12.63,24.37Z"/>
      <path class="cls-2" d="M625.52,219.09c-4.92-7.94-11.12-12.36-12.54-13.35-.86-.6-3.83-2.61-8.18-4.5-8.41-3.67-15.86-4.23-19.09-4.34-1.63-.06-5.49-.11-10.36.67-7.34,1.18-12.61,3.57-14.54,4.5-1.75.85-10.11,5.02-17.05,13.8-5.7,7.22-7.62,13.97-8.04,15.57-.11.42-.22.85-.32,1.29-.53-1.64-1.32-3.94-2.41-6.63-1.45-3.6-2.24-5.58-3.45-7.67,0,0-4.19-7.25-12.91-12.85-.84-.54-3.77-2.3-5.81-3.43,0,0,0,0,0,0,0,0-1.99-1.1-4.06-1.97-6.95-2.93-17.03-3.27-17.03-3.27-2.26-.08-5.72-.18-10.18.5-1.68.25-7.71,1.26-14.73,4.67-9.85,4.8-15.46,11.34-17.41,13.8-5.59,7.03-7.55,13.69-8.04,15.57-.16.6-.31,1.23-.45,1.84l.45-37.14h-39.28v168.8h39.28c.12-24.22-.01-48.54-.04-72.76-.01-11.26.1-22.54-.18-33.77-.22-8.75,4.03-17.47,11.81-22.67,8.71-5.83,21.08-6.63,30.6-1.98,14.09,6.89,15.23,19.83,15.23,32.7v98.5s.1,0,.29,0c0,0,36.76,0,38.64,0,.15,0,.23,0,.23,0v-111.98c1.27-6.79,5.2-13.11,11.36-17.23,8.71-5.83,21.08-6.63,30.6-1.98,14.09,6.89,15.23,19.83,15.23,32.7v98.5h38.93v-124.43c-.18-4.57-1.21-12.81-6.54-21.43ZM437.59,240.01s0,.1,0,.14c-.01-.05-.01-.09,0-.14Z"/>
    </g>
    <g>
      <path class="cls-2" d="M574.31,147.36v-3.56h21.06v3.56h-8.42v23.55h-4.17v-23.55h-8.46Z"/>
      <path class="cls-2" d="M600.93,170.91v-27.11h6.12l5.92,15.56c.16.46.36,1.05.57,1.75.22.7.44,1.47.67,2.3.23.82.45,1.64.65,2.44.21.8.39,1.52.55,2.17h-.88c.16-.61.34-1.31.55-2.1s.43-1.6.65-2.43c.23-.83.45-1.6.68-2.33.22-.73.41-1.32.58-1.78l5.83-15.56h6.15v27.11h-4.13v-14.6c0-.56,0-1.22.02-2,.01-.77.03-1.6.05-2.47.02-.86.04-1.74.06-2.63.02-.89.03-1.74.05-2.55h.31c-.24.89-.51,1.8-.79,2.74-.28.94-.56,1.85-.84,2.72s-.53,1.67-.78,2.39c-.25.72-.46,1.32-.63,1.79l-5.55,14.6h-3.55l-5.63-14.6c-.18-.46-.39-1.05-.63-1.76-.24-.71-.49-1.5-.77-2.36-.28-.86-.56-1.77-.86-2.71-.29-.94-.58-1.88-.87-2.81h.36c.02.74.05,1.55.06,2.42.02.86.03,1.75.06,2.63.02.89.03,1.73.05,2.52.02.8.03,1.49.03,2.08v14.6h-4.04Z"/>
    </g>
  </g>
</svg>