<svg width="15" height="15" viewBox="0 0 15 15" fill="none" xmlns="http://www.w3.org/2000/svg">
  <path d="M7.49991 0.877075C3.84222 0.877075 0.877075 3.84222 0.877075 7.49991C0.877075 11.1576 3.84222 14.1227 7.49991 14.1227C11.1576 14.1227 14.1227 11.1576 14.1227 7.49991C14.1227 3.84222 11.1576 0.877075 7.49991 0.877075ZM7.49991 1.82708C10.6301 1.82708 13.1729 4.36995 13.1729 7.49991C13.1729 10.6299 10.6301 13.1727 7.49991 13.1727C4.36969 13.1727 1.82708 10.6299 1.82708 7.49991C1.82708 4.36995 4.36969 1.82708 7.49991 1.82708ZM10.1589 5.53774C10.3178 5.31191 10.2636 5.00001 10.0378 4.84109C9.81194 4.68217 9.50004 4.73642 9.34112 4.96225L6.51977 9.0453L5.35681 7.78358C5.16334 7.57386 4.84677 7.55773 4.63706 7.75119C4.42734 7.94466 4.41121 8.26123 4.60467 8.47095L6.13403 10.1164C6.29476 10.2921 6.54371 10.3445 6.75183 10.2366C6.95994 10.1293 7.06598 9.91332 7.00256 9.69536L10.1589 5.53774Z" fill="currentColor" fill-rule="evenodd" clip-rule="evenodd"/>
</svg> 