<svg width="15" height="15" viewBox="0 0 15 15" fill="none" xmlns="http://www.w3.org/2000/svg">
  <path d="M7.5 0.877045C3.84362 0.877045 0.877045 3.84362 0.877045 7.5C0.877045 11.1564 3.84362 14.123 7.5 14.123C11.1564 14.123 14.123 11.1564 14.123 7.5C14.123 3.84362 11.1564 0.877045 7.5 0.877045ZM7.5 1.82704C10.6301 1.82704 13.173 4.36995 13.173 7.5C13.173 10.6301 10.6301 13.173 7.5 13.173C4.36995 13.173 1.82704 10.6301 1.82704 7.5C1.82704 4.36995 4.36995 1.82704 7.5 1.82704ZM4.90284 4.89648C4.75934 4.89648 4.61652 4.95332 4.51201 5.05782C4.30176 5.26807 4.30176 5.60949 4.51201 5.81974L6.19238 7.50011L4.51201 9.18048C4.30176 9.39073 4.30176 9.73215 4.51201 9.9424C4.72226 10.1527 5.06368 10.1527 5.27393 9.9424L6.9543 8.26203L8.63467 9.9424C8.84492 10.1527 9.18634 10.1527 9.39659 9.9424C9.60684 9.73215 9.60684 9.39073 9.39659 9.18048L7.71622 7.50011L9.39659 5.81974C9.60684 5.60949 9.60684 5.26807 9.39659 5.05782C9.18634 4.84756 8.84492 4.84756 8.63467 5.05782L6.9543 6.73819L5.27393 5.05782C5.16968 4.95357 5.02648 4.89648 4.90284 4.89648Z" fill="currentColor" fill-rule="evenodd" clip-rule="evenodd"/>
</svg> 