<svg xmlns="http://www.w3.org/2000/svg" width="15" height="15" viewBox="0 0 15 15" fill="none">
  <path d="M7.49991 0.876892C3.84222 0.876892 0.877075 3.84204 0.877075 7.49972C0.877075 11.1574 3.84222 14.1226 7.49991 14.1226C11.1576 14.1226 14.1227 11.1574 14.1227 7.49972C14.1227 3.84204 11.1576 0.876892 7.49991 0.876892ZM7.49988 1.82689C10.6302 1.82689 13.1727 4.36872 13.1727 7.49972C13.1727 10.6307 10.6302 13.1726 7.49988 13.1726C4.36957 13.1726 1.82708 10.6307 1.82708 7.49972C1.82708 4.36872 4.36957 1.82689 7.49988 1.82689ZM7.50003 4.92675C7.12783 4.92675 6.82533 5.22925 6.82533 5.60145C6.82533 5.97365 7.12783 6.27615 7.50003 6.27615C7.87223 6.27615 8.17473 5.97365 8.17473 5.60145C8.17473 5.22925 7.87223 4.92675 7.50003 4.92675ZM6.05664 7.37972C6.05664 7.65122 6.27514 7.86972 6.54664 7.86972H7.12286V9.92702H6.54664C6.27514 9.92702 6.05664 10.1455 6.05664 10.417C6.05664 10.6885 6.27514 10.907 6.54664 10.907H8.45285C8.72435 10.907 8.94285 10.6885 8.94285 10.417C8.94285 10.1455 8.72435 9.92702 8.45285 9.92702H7.87663V7.37972C7.87663 7.10822 7.65813 6.88972 7.38663 6.88972H6.54664C6.27514 6.88972 6.05664 7.10822 6.05664 7.37972Z" fill="currentColor" fillRule="evenodd" clipRule="evenodd" />
</svg> 