<?xml version="1.0" encoding="UTF-8"?>
<svg id="Layer_1" data-name="Layer 1" xmlns="http://www.w3.org/2000/svg" viewBox="0 0 2290.87 450.02">
  <defs>
    <style>
      .cls-1 {
        fill: #0b3140;
      }

      .cls-2 {
        fill: #f05722;
      }
    </style>
  </defs>
  <g>
    <path class="cls-1" d="M702.14,144.98v223.49h-28.5v-223.49h28.5ZM743.38,368.47h-54v-25.2h52.2c18.2,0,33.27-3.47,45.22-10.42,11.95-6.95,20.87-16.93,26.78-29.93,5.9-13,8.85-28.55,8.85-46.65s-2.93-33.27-8.78-46.12c-5.85-12.85-14.55-22.72-26.1-29.62s-25.97-10.35-43.27-10.35h-56.1v-25.2h58.05c21.8,0,40.42,4.45,55.87,13.35,15.45,8.9,27.3,21.68,35.55,38.32,8.25,16.65,12.37,36.52,12.37,59.62s-4.15,43.33-12.45,60.07c-8.3,16.75-20.4,29.62-36.3,38.62s-35.2,13.5-57.9,13.5Z"/>
    <path class="cls-1" d="M944.92,372.07c-15.2,0-28.53-3.6-39.97-10.8-11.45-7.2-20.38-17.3-26.78-30.3-6.4-13-9.6-28.1-9.6-45.3s3.2-32.77,9.6-45.82c6.4-13.05,15.32-23.17,26.78-30.38,11.45-7.2,24.77-10.8,39.97-10.8s28.7,3.6,40.2,10.8,20.45,17.32,26.85,30.38c6.4,13.05,9.6,28.32,9.6,45.82s-3.2,32.3-9.6,45.3c-6.4,13-15.35,23.1-26.85,30.3-11.5,7.2-24.9,10.8-40.2,10.8ZM944.92,347.92c11.3,0,20.6-2.9,27.9-8.7,7.3-5.8,12.7-13.43,16.2-22.88,3.5-9.45,5.25-19.67,5.25-30.67s-1.75-21.42-5.25-30.97c-3.5-9.55-8.9-17.25-16.2-23.1-7.3-5.85-16.6-8.78-27.9-8.78s-20.4,2.93-27.6,8.78c-7.2,5.85-12.55,13.53-16.05,23.02-3.5,9.5-5.25,19.85-5.25,31.05s1.75,21.22,5.25,30.67c3.5,9.45,8.85,17.08,16.05,22.88,7.2,5.8,16.4,8.7,27.6,8.7Z"/>
    <path class="cls-1" d="M1113.75,372.07c-15.2,0-28.53-3.6-39.97-10.8-11.45-7.2-20.38-17.3-26.78-30.3-6.4-13-9.6-28.1-9.6-45.3s3.2-32.77,9.6-45.82c6.4-13.05,15.32-23.17,26.78-30.38,11.45-7.2,24.77-10.8,39.97-10.8,8.1,0,15.75,1.05,22.95,3.15,7.2,2.1,13.77,5.13,19.73,9.07,5.95,3.95,11.07,8.8,15.38,14.55,4.3,5.75,7.6,12.28,9.9,19.58l-25.95,7.35c-1.2-4.3-3.05-8.25-5.55-11.85-2.5-3.6-5.53-6.73-9.08-9.38-3.55-2.65-7.62-4.7-12.23-6.15-4.6-1.45-9.65-2.18-15.15-2.18-11.2,0-20.4,2.93-27.6,8.78-7.2,5.85-12.55,13.53-16.05,23.02-3.5,9.5-5.25,19.85-5.25,31.05s1.75,21.22,5.25,30.67c3.5,9.45,8.85,17.08,16.05,22.88,7.2,5.8,16.4,8.7,27.6,8.7,5.6,0,10.75-.75,15.45-2.25,4.7-1.5,8.87-3.62,12.53-6.38,3.65-2.75,6.72-6.02,9.22-9.83,2.5-3.8,4.35-7.95,5.55-12.45l25.8,7.35c-2.2,7.5-5.47,14.17-9.82,20.03-4.35,5.85-9.52,10.85-15.52,15-6,4.15-12.65,7.3-19.95,9.45-7.3,2.15-15.05,3.22-23.25,3.22Z"/>
    <path class="cls-1" d="M1205.64,368.47v-223.49h27v223.49h-27ZM1230.99,308.17v-33.45h4.95l71.7-73.95h33.45l-77.54,79.65h-3l-29.55,27.75ZM1311.69,368.47l-64.2-82.05,19.2-19.05,79.65,101.1h-34.65Z"/>
    <path class="cls-1" d="M1422.47,372.07c-16.2,0-30.17-3.6-41.92-10.8-11.75-7.2-20.8-17.25-27.15-30.15-6.35-12.9-9.53-27.95-9.53-45.15s3.1-32.35,9.3-45.45c6.2-13.1,14.97-23.35,26.33-30.75,11.35-7.4,24.62-11.1,39.82-11.1,8.9,0,17.67,1.48,26.33,4.42,8.65,2.95,16.5,7.7,23.55,14.25,7.05,6.55,12.68,15.18,16.87,25.87,4.2,10.7,6.3,23.8,6.3,39.3v11.25h-130.2v-22.8h115.65l-12.6,8.4c0-11-1.73-20.78-5.18-29.32-3.45-8.55-8.57-15.25-15.37-20.1-6.8-4.85-15.25-7.27-25.35-7.27s-18.75,2.47-25.95,7.42c-7.2,4.95-12.7,11.4-16.5,19.35-3.8,7.95-5.7,16.48-5.7,25.57v15.15c0,12.4,2.15,22.93,6.45,31.57,4.3,8.65,10.32,15.2,18.07,19.65,7.75,4.45,16.73,6.68,26.92,6.68,6.6,0,12.6-.95,18-2.85,5.4-1.9,10.05-4.78,13.95-8.62,3.9-3.85,6.9-8.62,9-14.32l26.1,7.2c-2.6,8.4-7,15.8-13.2,22.2-6.2,6.4-13.88,11.4-23.03,15-9.15,3.6-19.47,5.4-30.97,5.4Z"/>
    <path class="cls-1" d="M1581.7,200.78v23.1h-86.7v-23.1h86.7ZM1520.21,160.88h27v164.09c0,7.5,1.52,12.98,4.57,16.42,3.05,3.45,8.12,5.18,15.23,5.18,1.7,0,3.87-.2,6.53-.6,2.64-.4,5.07-.8,7.27-1.2l5.55,22.8c-2.8,1-5.98,1.75-9.53,2.25-3.55.5-7.07.75-10.57.75-14.5,0-25.8-3.83-33.9-11.47-8.1-7.65-12.15-18.32-12.15-32.02v-166.19Z"/>
    <path class="cls-1" d="M1642.84,368.47l-60.9-223.49h29.1l35.4,137.1c1.9,7.3,3.7,14.73,5.4,22.27,1.7,7.55,3.35,15.2,4.95,22.95,1.6,7.75,3.1,15.72,4.5,23.92h-3.45c1.5-8.2,3.05-16.17,4.65-23.92,1.6-7.75,3.3-15.4,5.1-22.95,1.8-7.55,3.65-14.97,5.55-22.27l36.15-137.1h32.4l35.85,137.1c2,7.3,3.87,14.73,5.62,22.27,1.75,7.55,3.48,15.2,5.18,22.95s3.3,15.72,4.8,23.92h-3.9c1.5-8.2,3.05-16.17,4.65-23.92,1.6-7.75,3.3-15.4,5.1-22.95,1.8-7.55,3.6-14.97,5.4-22.27l35.25-137.1h29.4l-61.2,223.49h-33.15l-38.4-141.59c-2.5-9.2-4.9-19.22-7.2-30.07-2.3-10.85-4.55-23.37-6.75-37.58h6c-2.2,13.4-4.35,25.38-6.45,35.92-2.1,10.55-4.6,21.13-7.5,31.72l-38.25,141.59h-33.3Z"/>
    <path class="cls-1" d="M1898.83,173.33c-5.1,0-9.5-1.75-13.2-5.25-3.7-3.5-5.55-7.7-5.55-12.6s1.85-9.22,5.55-12.67c3.7-3.45,8.1-5.17,13.2-5.17s9.65,1.72,13.35,5.17c3.7,3.45,5.55,7.68,5.55,12.67s-1.85,9.1-5.55,12.6c-3.7,3.5-8.15,5.25-13.35,5.25ZM1885.18,368.47v-167.69h27v167.69h-27Z"/>
    <path class="cls-1" d="M2001.21,372.07c-11.5,0-21.73-1.68-30.68-5.02-8.95-3.35-16.32-8.33-22.12-14.93-5.8-6.6-9.7-14.7-11.7-24.3l25.65-6.15c2.4,9.2,6.92,15.95,13.57,20.25,6.65,4.3,14.97,6.45,24.98,6.45,11.7,0,21.02-2.5,27.97-7.5,6.95-5,10.43-10.95,10.43-17.85,0-5.8-2.03-10.62-6.08-14.47s-10.22-6.72-18.52-8.62l-27.9-6.6c-15.2-3.6-26.5-9.17-33.9-16.73-7.4-7.55-11.1-17.22-11.1-29.02,0-9.6,2.7-18.07,8.1-25.43,5.4-7.35,12.77-13.1,22.12-17.25,9.35-4.15,19.97-6.22,31.87-6.22s21.27,1.73,29.32,5.18c8.05,3.45,14.6,8.2,19.65,14.25,5.05,6.05,8.82,13.03,11.32,20.92l-24.45,6.3c-2.3-6-6.13-11.45-11.47-16.35-5.35-4.9-13.42-7.35-24.22-7.35-10,0-18.32,2.3-24.97,6.9-6.65,4.6-9.98,10.4-9.98,17.4,0,6.2,2.25,11.18,6.75,14.93,4.5,3.75,11.65,6.78,21.45,9.07l25.35,6c15.2,3.6,26.45,9.18,33.75,16.73,7.3,7.55,10.95,17.08,10.95,28.57,0,9.8-2.77,18.52-8.32,26.18-5.55,7.65-13.3,13.67-23.25,18.07-9.95,4.4-21.48,6.6-34.57,6.6Z"/>
    <path class="cls-1" d="M2161.49,372.07c-16.2,0-30.17-3.6-41.92-10.8-11.75-7.2-20.8-17.25-27.15-30.15-6.35-12.9-9.53-27.95-9.53-45.15s3.1-32.35,9.3-45.45c6.2-13.1,14.97-23.35,26.33-30.75,11.35-7.4,24.62-11.1,39.82-11.1,8.9,0,17.67,1.48,26.33,4.42,8.65,2.95,16.5,7.7,23.55,14.25,7.05,6.55,12.68,15.18,16.87,25.87,4.2,10.7,6.3,23.8,6.3,39.3v11.25h-130.2v-22.8h115.65l-12.6,8.4c0-11-1.73-20.78-5.18-29.32-3.45-8.55-8.57-15.25-15.37-20.1-6.8-4.85-15.25-7.27-25.35-7.27s-18.75,2.47-25.95,7.42c-7.2,4.95-12.7,11.4-16.5,19.35-3.8,7.95-5.7,16.48-5.7,25.57v15.15c0,12.4,2.15,22.93,6.45,31.57,4.3,8.65,10.32,15.2,18.07,19.65,7.75,4.45,16.73,6.68,26.92,6.68,6.6,0,12.6-.95,18-2.85,5.4-1.9,10.05-4.78,13.95-8.62,3.9-3.85,6.9-8.62,9-14.32l26.1,7.2c-2.6,8.4-7,15.8-13.2,22.2-6.2,6.4-13.88,11.4-23.03,15-9.15,3.6-19.47,5.4-30.97,5.4Z"/>
  </g>
  <g>
    <g>
      <path class="cls-2" d="M224.94,153.14c.02-1.63-.21-40.18-32.37-62.23-18.1-12.41-36.99-12.88-42.81-12.95-4.15-.06-9.84.03-16.91,2.16-18.57,5.58-28.24,20.02-30.58,23.74-8.65,13.78-8.68,27.17-8.63,30.22.2,12.09,4.41,23.9,9.71,30.22.46.54,1.66,1.92,4.2,4.92,3.95,4.65,7.1,8.46,9.11,10.91-12.71,14.87-25.42,29.74-38.13,44.61-4.92,6.45-19.1,26.78-19.06,56.12,0,6.02.64,38.27,25.9,63.67,22.07,22.18,56.45,32.63,83.58,23.74,6.37-2.09,11.02-4.8,13.43-6.23,5.09-3.02,31.49-18.66,35.49-48.44,2.58-19.22-5.46-34.66-8.15-39.33-4.43-7.67-10.65-14.33-19.67-23.98-5.36-5.74-10.04-10.26-13.31-13.31,10.31-12.35,20.62-24.7,30.94-37.05,4.58-5.65,17-22.5,17.26-46.76ZM179.63,254.03c6.62,7.22,10.65,16.85,10.65,27.41,0,22.43-18.18,40.61-40.61,40.61s-40.61-18.18-40.61-40.61c0-10.55,4.03-20.17,10.63-27.39l29.65-35.77,30.28,35.74ZM175.62,174.49h.05l-25.69,30.98-26.27-30.98h.03c-4.68-5.75-7.49-13.09-7.49-21.08,0-18.46,14.97-33.43,33.43-33.43s33.43,14.97,33.43,33.43c0,7.99-2.8,15.33-7.48,21.08Z"/>
      <path class="cls-2" d="M369.54,268.29c-.43-14.29-3.07-22.97-3.07-22.97-2-5.42-5.01-11.52-9.55-17.58-6.72-8.97-13.9-13.98-17.35-16.34-6.12-4.19-11.14-6.3-12.64-6.91-.98-.4-4.26-1.7-8.6-2.8-16.26-4.1-30.82-1.09-33.18-.57-3.64.79-9.35,2.06-15.96,5.5-5.44,2.83-10.06,6.38-13.01,8.65-1.85,1.42-3.35,2.66-4.38,3.54-1.35,1.22-2.78,2.62-4.21,4.21-2.12,2.35-3.84,4.65-5.22,6.74,3.97,4.19,8.01,8.4,12.13,12.64,4.57,4.7,8.28,8.29,12.8,12.8,2.02-2.7,4.02-5.3,7.24-8.76.68-.73,3.39-3.57,7.75-6.23,1.58-.96,4.66-2.81,9.1-4.04,3.07-.85,8.94-2,16-.51,4.38.93,7.57,2.53,9.1,3.37,6.76,3.73,10.25,8.79,11.12,10.11,1.14,1.72,2.75,4.22,3.6,7.94.81,3.52.57,6.52.27,8.38-8.15-.3-16.84-.51-25.16-.82-5.85-.21-11.72-.06-17.54.48-12.71,1.19-19.68,3.71-22.49,4.81-2.45.95-10.21,4.15-18,10.64-14.32,11.95-17.73,25.92-18.5,29.52-1.9,8.94-.77,16.6.65,21.86.11.41.22.81.33,1.19,1.75,5.92,4.3,10.51,6.14,13.38,3.72,5.78,7.98,10.03,11.3,12.88,1.63,1.41,4.2,3.44,7.73,5.4,18.81,10.46,38.74,5.84,38.74,5.84,3.14-.73,13.74-3.52,23.73-12.62,6.28-5.72,9.94-11.76,11.96-15.75,0,.01-.01.04-.01.04,0,0,.1,1.3.01,2.49-.14,8.42-.13,15.29-.07,23.74h39.22c-.01-2.55.01-99.84,0-100.26ZM317.79,340.29c-12.88,8.16-30.12,3.83-37.49-9.83-6.09-11.29-3.08-25.56,7.07-33.41,3.8-2.94,7.6-4.73,11.96-5.36,0,0,.07,0,.16-.02.53-.07,1.07-.11,1.61-.11l29.55-.11-.23,24.47c.71,9.44-4.08,18.95-12.63,24.37Z"/>
      <path class="cls-2" d="M616.9,222.7c-4.92-7.94-11.12-12.36-12.54-13.35-.86-.6-3.83-2.61-8.18-4.5-8.41-3.67-15.86-4.23-19.09-4.34-1.63-.06-5.49-.11-10.36.67-7.34,1.18-12.61,3.57-14.54,4.5-1.75.85-10.11,5.02-17.05,13.8-5.7,7.22-7.62,13.97-8.04,15.57-.11.42-.22.85-.32,1.29-.53-1.64-1.32-3.94-2.41-6.63-1.45-3.6-2.24-5.58-3.45-7.67,0,0-4.19-7.25-12.91-12.85-.84-.54-3.77-2.3-5.81-3.43,0,0,0,0,0,0,0,0-1.99-1.1-4.06-1.97-6.95-2.93-17.03-3.27-17.03-3.27-2.26-.08-5.72-.18-10.18.5-1.68.25-7.71,1.26-14.73,4.67-9.85,4.8-15.46,11.34-17.41,13.8-5.59,7.03-7.55,13.69-8.04,15.57-.16.6-.31,1.23-.45,1.84l.45-37.14h-39.28v168.8h39.28c.12-24.22-.01-48.54-.04-72.76-.01-11.26.1-22.54-.18-33.77-.22-8.75,4.03-17.47,11.81-22.67,8.71-5.83,21.08-6.63,30.6-1.98,14.09,6.89,15.23,19.83,15.23,32.7v98.5s.1,0,.29,0c0,0,36.76,0,38.64,0,.15,0,.23,0,.23,0v-111.98c1.27-6.79,5.2-13.11,11.36-17.23,8.71-5.83,21.08-6.63,30.6-1.98,14.09,6.89,15.23,19.83,15.23,32.7v98.5h38.93v-124.43c-.18-4.57-1.21-12.81-6.54-21.43ZM428.97,243.62s0,.1,0,.14c-.01-.05-.01-.09,0-.14Z"/>
    </g>
    <g>
      <path class="cls-2" d="M565.68,150.96v-3.56h21.06v3.56h-8.42v23.55h-4.17v-23.55h-8.46Z"/>
      <path class="cls-2" d="M592.31,174.51v-27.11h6.12l5.92,15.56c.16.46.36,1.05.57,1.75.22.7.44,1.47.67,2.3.23.82.45,1.64.65,2.44.21.8.39,1.52.55,2.17h-.88c.16-.61.34-1.31.55-2.1s.43-1.6.65-2.43c.23-.83.45-1.6.68-2.33.22-.73.41-1.32.58-1.78l5.83-15.56h6.15v27.11h-4.13v-14.6c0-.56,0-1.22.02-2,.01-.77.03-1.6.05-2.47.02-.86.04-1.74.06-2.63.02-.89.03-1.74.05-2.55h.31c-.24.89-.51,1.8-.79,2.74-.28.94-.56,1.85-.84,2.72s-.53,1.67-.78,2.39c-.25.72-.46,1.32-.63,1.79l-5.55,14.6h-3.55l-5.63-14.6c-.18-.46-.39-1.05-.63-1.76-.24-.71-.49-1.5-.77-2.36-.28-.86-.56-1.77-.86-2.71-.29-.94-.58-1.88-.87-2.81h.36c.02.74.05,1.55.06,2.42.02.86.03,1.75.06,2.63.02.89.03,1.73.05,2.52.02.8.03,1.49.03,2.08v14.6h-4.04Z"/>
    </g>
  </g>
</svg>